HIERARCHY
ROOT SpineBase
{
  OFFSET 0.000000 0.000000 0.000000
  CHANNELS 6 Xposition Yposition Zposition Zrotation Xrotation Yrotation
  JOINT SpineMid
  {
    OFFSET 0.000000 31.859963 0.000000
    CHANNELS 3 Zrotation Xrotation Yrotation
    JOINT SpineShoulder
    {
      OFFSET -0.366343 23.636545 -0.708713
      CHANNELS 3 Zrotation Xrotation Yrotation
      JOINT Neck
      {
        OFFSET -0.248903 7.832308 -0.537264
        CHANNELS 3 Zrotation Xrotation Yrotation
        JOINT Head
        {
          OFFSET -1.305256 12.447822 4.390893
          CHANNELS 3 Zrotation Xrotation Yrotation
          End Site
          {
            OFFSET 0 0 0
          }
        }
      }
      JOINT ShoulderLeft
      {
        OFFSET -6.254848 -2.425629 13.186821
        CHANNELS 3 Zrotation Xrotation Yrotation
        JOINT ElbowLeft
        {
          OFFSET -3.996423 -27.368962 -14.821632
          CHANNELS 3 Zrotation Xrotation Yrotation
          JOINT WristLeft
          {
            OFFSET 0.840745 -30.006057 -6.543127
            CHANNELS 3 Zrotation Xrotation Yrotation
            JOINT HandLeft
            {
              OFFSET -4.520066 -0.176398 1.575546
              CHANNELS 3 Zrotation Xrotation Yrotation
              JOINT HandTipLeft
              {
                OFFSET -2.159274 -3.177938 1.047825
                CHANNELS 3 Zrotation Xrotation Yrotation
                End Site
                {
                  OFFSET 0 0 0
                }
              }
              JOINT ThumbLeft
              {
                OFFSET -3.290475 1.492497 -2.743982
                CHANNELS 3 Zrotation Xrotation Yrotation
                End Site
                {
                  OFFSET 0 0 0
                }
              }
            }
          }
        }
      }
      JOINT ShoulderRight
      {
        OFFSET -2.527066 -5.361880 -10.045740
        CHANNELS 3 Zrotation Xrotation Yrotation
        JOINT ElbowRight
        {
          OFFSET -7.391296 -26.105422 -1.497846
          CHANNELS 3 Zrotation Xrotation Yrotation
          JOINT WristRight
          {
            OFFSET -5.037830 -21.641215 2.693988
            CHANNELS 3 Zrotation Xrotation Yrotation
            JOINT HandRight
            {
              OFFSET -0.775476 -4.019979 1.254634
              CHANNELS 3 Zrotation Xrotation Yrotation
              JOINT HandTipRight
              {
                OFFSET -1.244433 -5.616043 2.033800
                CHANNELS 3 Zrotation Xrotation Yrotation
                End Site
                {
                  OFFSET 0 0 0
                }
              }
              JOINT ThumbRight
              {
                OFFSET -2.053737 0.610282 -0.082230
                CHANNELS 3 Zrotation Xrotation Yrotation
                End Site
                {
                  OFFSET 0 0 0
                }
              }
            }
          }
        }
      }
    }
  }
  JOINT HipLeft
  {
    OFFSET -2.366749 0.685046 -1.892563
    CHANNELS 3 Zrotation Xrotation Yrotation
    JOINT KneeLeft
    {
      OFFSET 8.777835 -26.497458 0.780629
      CHANNELS 3 Zrotation Xrotation Yrotation
      JOINT AnkleLeft
      {
        OFFSET 4.621272 -27.880149 4.181734
        CHANNELS 3 Zrotation Xrotation Yrotation
        JOINT FootLeft
        {
          OFFSET -8.671069 -2.960753 -4.021235
          CHANNELS 3 Zrotation Xrotation Yrotation
          End Site
          {
            OFFSET 0 0 0
          }
        }
      }
    }
  }
  JOINT HipRight
  {
    OFFSET -0.001789 0.369249 -4.146035
    CHANNELS 3 Zrotation Xrotation Yrotation
    JOINT KneeRight
    {
      OFFSET 4.040377 -23.556025 3.018359
      CHANNELS 3 Zrotation Xrotation Yrotation
      JOINT AnkleRight
      {
        OFFSET 8.341704 -32.444669 2.066677
        CHANNELS 3 Zrotation Xrotation Yrotation
        JOINT FootRight
        {
          OFFSET -9.453394 -2.643000 -4.407703
          CHANNELS 3 Zrotation Xrotation Yrotation
          End Site
          {
            OFFSET 0 0 0
          }
        }
      }
    }
  }
}
MOTION
Frames: 13
Frame Time: 0.033333
115.202328 61.940169 308.027581 0.537652 0.118678 72.127040 -0.277963 0.475281 -72.126444 -0.000000 0.000000 0.000000 -2.293891 -0.892725 0.701170 0.000000 0.000000 0.000000 -0.262575 5.058181 -0.571417 1.672372 -5.528905 0.414554 92.133237 11.097850 -29.347835 -92.756060 -12.551491 -23.931690 0.000000 0.000000 0.000000 0.000000 0.000000 0.000000 7.714426 -1.922255 0.235340 -6.665830 1.842345 0.142603 17.353957 -3.999072 7.196268 -5.892990 3.179855 -1.855208 0.000000 0.000000 0.000000 0.000000 0.000000 0.000000 -3.849221 1.702152 -73.132474 1.797547 5.154603 1.337398 -1.229681 -3.222380 4.952634 0.000000 0.000000 0.000000 -0.408855 2.548381 -72.293798 5.059955 0.978882 0.737341 30.998645 -15.392603 14.894746 0.000000 0.000000 0.000000
115.181479 61.952212 308.023516 0.569296 0.092732 62.904127 -0.341862 0.464575 -62.903201 -0.000000 0.000000 0.000000 -2.581123 -0.855622 0.805645 0.000000 0.000000 0.000000 -0.243697 5.135316 -0.592872 1.681892 -5.615363 0.433395 92.136862 11.117706 -29.347840 -92.776381 -12.534708 -23.956615 0.000000 0.000000 0.000000 0.000000 0.000000 0.000000 7.079088 -1.875583 0.244938 -5.828176 1.782844 0.128745 17.822926 -4.679211 7.654320 -5.695356 4.061525 -2.043758 0.000000 0.000000 0.000000 0.000000 0.000000 0.000000 -4.321990 0.828623 -64.046528 1.574503 5.638892 1.468765 1.654737 -4.670108 5.585873 0.000000 0.000000 0.000000 -0.666544 2.582021 -63.039719 5.088483 0.868182 0.736594 45.584518 -18.446753 20.413890 0.000000 0.000000 0.000000
115.162731 61.970803 308.015802 0.605713 0.076713 48.137492 -0.461357 0.399907 -48.136287 -0.000000 0.000000 0.000000 -2.797531 -0.937270 0.870563 0.000000 0.000000 0.000000 -0.239542 5.243827 -0.610222 1.700045 -5.719814 0.451359 92.137568 11.121986 -29.347885 -92.793719 -12.533350 -23.965778 0.000000 0.000000 0.000000 0.000000 0.000000 0.000000 6.472336 -1.840173 0.257719 -5.279571 1.697205 0.099676 19.146563 -5.993741 8.601284 -7.892070 7.585752 -3.688572 0.000000 0.000000 0.000000 0.000000 0.000000 0.000000 -4.446419 -0.548189 -49.398125 1.248557 5.980787 1.554406 11.262185 -8.945658 8.405177 0.000000 0.000000 0.000000 -1.342806 2.474638 -48.263120 5.148970 0.722813 0.720928 45.477733 -18.420279 19.925696 0.000000 0.000000 0.000000
115.138286 61.996444 308.003700 0.633709 0.064828 30.912908 -0.576998 0.269937 -30.911907 -0.000000 0.000000 0.000000 -2.984136 -1.085765 0.916283 0.000000 0.000000 0.000000 -0.192255 4.967261 -0.599096 1.557575 -5.291844 0.441482 92.103102 10.935403 -29.348713 -92.752765 -12.717034 -23.775893 0.000000 0.000000 0.000000 0.000000 0.000000 0.000000 5.933741 -1.826676 0.275446 -4.998906 1.626863 0.053057 20.152433 -7.472790 9.447629 -9.318437 9.550922 -4.472366 0.000000 0.000000 0.000000 0.000000 0.000000 0.000000 -4.307179 -1.926475 -32.293210 1.495102 6.300707 1.648873 21.918453 -12.995939 12.069958 0.000000 0.000000 0.000000 -2.116233 2.065005 -31.039903 5.353406 0.790620 0.759494 37.554236 -17.090603 16.499762 0.000000 0.000000 0.000000
115.075587 61.999140 307.999147 0.620287 0.060181 22.272182 -0.596820 0.179401 -22.271574 -0.000000 0.000000 0.000000 -3.185840 -1.355009 0.951020 0.000000 0.000000 0.000000 -0.231941 5.174313 -0.604992 1.625849 -5.514501 0.453283 92.107734 10.961565 -29.348728 -92.767784 -12.693031 -23.805079 0.000000 0.000000 0.000000 0.000000 0.000000 0.000000 5.779989 -1.773995 0.263967 -5.774588 1.791551 -0.084039 21.458428 -9.898517 10.642013 -14.732136 16.187289 -6.964883 0.000000 0.000000 0.000000 0.000000 0.000000 0.000000 -3.922772 -2.804956 -23.744695 1.332328 6.562877 1.727687 30.867798 -15.633275 15.561204 0.000000 0.000000 0.000000 -2.346472 1.667529 -22.401167 5.412434 0.877372 0.773890 23.395993 -13.428210 11.268070 0.000000 0.000000 0.000000
115.029940 62.032795 307.999544 0.620518 0.039081 18.046172 -0.602101 0.155066 -18.045569 -0.000000 0.000000 0.000000 -3.329588 -1.585951 0.970084 0.000000 0.000000 0.000000 -0.329314 5.744776 -0.627377 1.856619 -6.241247 0.485793 92.145453 11.167243 -29.348037 -92.830853 -12.493700 -24.019485 0.000000 0.000000 0.000000 0.000000 0.000000 0.000000 6.015505 -1.732260 0.239830 -6.781017 1.169423 0.001522 22.729436 -12.932558 11.894667 -22.914428 26.143666 -8.898869 0.000000 0.000000 0.000000 0.000000 0.000000 0.000000 -3.829967 -3.092454 -19.550988 1.493070 6.651485 1.754904 34.303315 -16.500321 17.217811 0.000000 0.000000 0.000000 -2.485397 1.528178 -18.178540 5.543055 0.842806 0.777291 7.438566 -7.623207 6.622186 0.000000 0.000000 0.000000
115.045632 62.090245 307.988085 0.668990 0.034266 15.330945 -0.654245 0.143828 -15.330324 -0.000000 0.000000 0.000000 -3.440604 -1.813572 0.977876 0.000000 0.000000 0.000000 -0.476535 6.575164 -0.654942 2.222680 -7.356826 0.534683 92.212509 11.533475 -29.347171 -92.923642 -12.135466 -24.395056 0.000000 0.000000 0.000000 0.000000 0.000000 0.000000 5.856566 -1.879796 0.296696 -7.226596 1.503883 -0.140781 21.145126 -15.664612 11.940337 -26.344346 31.753189 -8.524609 0.000000 0.000000 0.000000 0.000000 0.000000 0.000000 -4.029033 -3.129974 -16.839390 1.994361 6.530225 1.734972 30.610941 -15.574650 15.587987 0.000000 0.000000 0.000000 -2.835973 1.500566 -15.489831 5.883524 0.821832 0.811759 0.761901 -4.743110 4.955670 0.000000 0.000000 0.000000
115.099315 62.154898 307.981478 0.750147 0.022034 17.102505 -0.723458 0.199541 -17.101390 -0.000000 0.000000 0.000000 -3.508223 -1.838733 0.997578 0.000000 0.000000 0.000000 -0.658261 7.521036 -0.675436 2.682715 -8.695688 0.592865 92.303633 12.029791 -29.346806 -93.025740 -11.645697 -24.896737 0.000000 0.000000 0.000000 0.000000 0.000000 0.000000 6.114536 -1.758045 0.244449 -8.101079 1.143674 -0.105457 16.866141 -14.463805 9.338088 -22.967400 30.378906 -8.109882 0.000000 0.000000 0.000000 0.000000 0.000000 0.000000 -4.528262 -2.678205 -18.558383 2.555872 6.171487 1.653154 21.502821 -12.789456 12.079944 0.000000 0.000000 0.000000 -3.090592 1.778837 -17.271284 6.173433 0.700533 0.831963 -2.675837 -3.139755 4.283202 0.000000 0.000000 0.000000
115.167134 62.195150 307.980334 0.812317 -0.021541 20.412464 -0.753803 0.303495 -20.410315 -0.000000 0.000000 0.000000 -3.423025 -1.596652 1.000695 0.000000 0.000000 0.000000 -0.922499 8.380937 -0.632929 3.196044 -9.967862 0.612860 92.396472 12.535359 -29.347511 -93.091011 -11.140709 -25.395986 0.000000 0.000000 0.000000 0.000000 0.000000 0.000000 5.690885 -1.799496 0.276330 -8.070992 1.103376 -0.164910 14.067019 -12.110573 7.310639 -18.424980 27.556774 -7.973859 0.000000 0.000000 0.000000 0.000000 0.000000 0.000000 -4.919946 -1.989339 -21.767566 3.053055 5.668795 1.539186 10.410025 -8.409618 7.675286 0.000000 0.000000 0.000000 -3.741378 2.282148 -20.652239 7.211028 0.664624 0.940420 -3.536733 -2.777770 4.045255 0.000000 0.000000 0.000000
115.287641 62.223923 307.955559 0.888915 -0.091487 21.670942 -0.792319 0.413256 -21.667375 -0.000000 0.000000 0.000000 -3.200994 -1.172858 0.980051 0.000000 0.000000 0.000000 -1.263788 9.105192 -0.523847 3.729011 -11.087038 0.587789 92.482359 13.002777 -29.348974 -93.113939 -10.668498 -25.846540 0.000000 0.000000 0.000000 0.000000 0.000000 0.000000 5.256616 -1.489686 0.190995 -8.242306 0.352604 -0.108998 11.143246 -6.089415 4.349407 -8.259211 19.673957 -6.466310 0.000000 0.000000 0.000000 0.000000 0.000000 0.000000 -5.090172 -1.414268 -22.902209 3.433473 5.040887 1.400546 0.828659 -3.647947 4.258612 0.000000 0.000000 0.000000 -3.686803 2.594006 -21.876244 6.822372 0.258855 0.846145 -0.486451 -3.650492 4.213394 0.000000 0.000000 0.000000
115.396841 62.265558 307.919103 0.912212 -0.196023 23.244293 -0.760838 0.540088 -23.239146 -0.000000 0.000000 0.000000 -2.835315 -0.577829 0.929498 0.000000 0.000000 0.000000 -1.634621 9.534706 -0.356992 4.195816 -11.843549 0.503918 92.549039 13.366081 -29.350719 -93.086550 -10.295060 -26.184013 0.000000 0.000000 0.000000 0.000000 0.000000 0.000000 5.057096 -1.031439 0.047866 -8.922628 -0.845261 0.004571 11.130510 -0.544341 2.648622 -3.459592 12.819030 -4.254959 0.000000 0.000000 0.000000 0.000000 0.000000 0.000000 -5.206820 -0.774565 -24.345577 3.929147 4.424092 1.273938 -1.985081 -1.933486 3.246180 0.000000 0.000000 0.000000 -3.301604 2.890571 -23.383371 6.034019 -0.338440 0.667650 0.057569 -3.141366 3.857773 0.000000 0.000000 0.000000
115.582943 62.289248 307.852688 1.008468 -0.288947 24.541578 -0.797402 0.681666 -24.534291 -0.000000 0.000000 0.000000 -2.405280 0.145243 0.868358 0.000000 0.000000 0.000000 -1.993555 9.629126 -0.154289 4.542441 -12.156898 0.364018 92.587919 13.579361 -29.351980 -93.017480 -10.068193 -26.367447 0.000000 0.000000 0.000000 0.000000 0.000000 0.000000 4.900056 -0.450013 -0.136335 -9.594420 -1.958910 0.081910 11.299936 3.557224 1.442131 -1.363828 8.777475 -2.718669 0.000000 0.000000 0.000000 0.000000 0.000000 0.000000 -5.303668 -0.174069 -25.512678 4.194096 3.722233 1.125673 -2.487697 -1.148017 2.709374 0.000000 0.000000 0.000000 -3.158289 3.155097 -24.644796 5.369482 -0.842284 0.508612 0.632913 -2.607534 3.379478 0.000000 0.000000 0.000000
115.817939 62.294917 307.763592 1.154803 -0.358754 25.367712 -0.491727 0.069347 -25.348269 -0.680650 0.506896 -0.009544 -1.913591 0.791474 0.770743 0.000000 0.000000 0.000000 -2.478267 9.545404 0.145183 4.901906 -12.241427 0.134967 92.608398 13.696053 -29.352382 -92.882796 -9.929796 -26.441034 0.000000 0.000000 0.000000 0.000000 0.000000 0.000000 4.959827 0.099646 -0.321207 -10.138798 -2.873450 0.163508 11.947455 6.037605 0.852354 0.012260 6.924992 -1.814508 0.000000 0.000000 0.000000 0.000000 0.000000 0.000000 -5.565605 0.321247 -26.251913 4.516012 3.153594 1.013942 -0.423833 -1.642832 2.641538 0.000000 0.000000 0.000000 -3.166696 3.376026 -25.449642 4.795981 -1.255205 0.369925 1.197196 -2.150530 3.010527 0.000000 0.000000 0.000000
